<svg xmlns="http://www.w3.org/2000/svg" viewBox="0 0 180 110"><g stroke="#534c38" stroke-width="3" stroke-linejoin="round"><path fill="#34332c" d="M24 76h137l13 14-14 14H27L14 90Z"/><g fill="#b5a579"><circle cx="33" cy="91" r="8"/><circle cx="53" cy="91" r="8"/><circle cx="73" cy="91" r="8"/><circle cx="93" cy="91" r="8"/><circle cx="113" cy="91" r="8"/><circle cx="133" cy="91" r="8"/><circle cx="153" cy="91" r="8"/></g><path fill="#bca675" d="m17 78 18-19 121 2 17 18Z"/><path fill="#d8c18c" d="m57 54 18-23 69 5 19 18-24 7-73-3Z"/><path fill="#af9b70" d="M1 39h77v7H1Z"/><path fill="#e2ce9c" d="M94 27h27v7H94Z"/><path d="M135 34V8M103 27V18h21M36 68h119" fill="none"/><path fill="#c9b580" d="M38 75h26v10H38Zm29 0h26v10H67Zm29 0h26v10H96Zm29 0h26v10h-26Z"/></g></svg>
